<svg width="295" height="182" viewBox="0 0 295 182" fill="none" xmlns="http://www.w3.org/2000/svg">
<mask id="mask0_187_2259" style="mask-type:alpha" maskUnits="userSpaceOnUse" x="47" y="11" width="248" height="155">
<rect x="3.5" y="-3.5" width="239.602" height="148" rx="46.5" transform="matrix(1 0 0 -1 47.6968 159)" stroke="black" stroke-width="7" stroke-linecap="square" stroke-linejoin="round" stroke-dasharray="10 25"/>
</mask>
<g mask="url(#mask0_187_2259)">
<rect width="235.439" height="138" transform="matrix(1 0 0 -1 -14.2073 120)" fill="black"/>
</g>
<ellipse cx="51.9653" cy="50.5" rx="51.9653" ry="50.5" transform="matrix(1 0 0 -1 0 182)" fill="#F43984" fill-opacity="0.12"/>
<g filter="url(#filter0_d_187_2259)">
<ellipse cx="20.5803" cy="20" rx="20.5803" ry="20" transform="matrix(1 0 0 -1 30.8704 151)" fill="white"/>
</g>
<path d="M51.7292 119C53.5322 119 55.3175 119.324 56.9832 119.955C58.6489 120.585 60.1624 121.509 61.4373 122.674C64.012 125.026 65.4585 128.217 65.4585 131.544C65.4585 137.088 61.5182 141.792 56.0677 143.46C55.3812 143.561 55.1616 143.172 55.1616 142.833V140.713C58.9646 141.466 59.7746 139.032 59.7746 139.032C60.4061 137.577 61.2985 137.188 61.2985 137.188C62.5479 136.411 61.2024 136.436 61.2024 136.436C59.8295 136.524 59.1019 137.728 59.1019 137.728C57.9074 139.635 55.8892 139.07 55.1066 138.769C54.9831 137.954 54.6261 137.402 54.2417 137.088C57.2896 136.775 60.4885 135.696 60.4885 130.917C60.4885 129.524 59.9668 128.408 59.0744 127.517C59.2117 127.204 59.6922 125.899 58.9371 124.206C58.9371 124.206 57.7838 123.867 55.1616 125.485C54.0769 125.209 52.8962 125.071 51.7292 125.071C50.5623 125.071 49.3815 125.209 48.2969 125.485C45.6746 123.867 44.5214 124.206 44.5214 124.206C43.7663 125.899 44.2468 127.204 44.3841 127.517C43.4917 128.408 42.97 129.524 42.97 130.917C42.97 135.708 46.1826 136.762 49.2442 137.076C48.75 137.464 48.2969 138.23 48.2969 139.396L48.2969 142.833C48.2969 143.172 48.0773 143.573 47.3771 143.46C41.9266 141.78 38 137.088 38 131.544C38 129.897 38.3551 128.265 39.0451 126.743C39.735 125.222 40.7463 123.839 42.0212 122.674C43.2961 121.509 44.8096 120.585 46.4753 119.955C48.141 119.324 49.9263 119 51.7292 119Z" fill="black"/>
<g filter="url(#filter1_d_187_2259)">
<ellipse cx="11.6705" cy="11.5" rx="11.6705" ry="11.5" transform="matrix(1 0 0 -1 200.935 26)" fill="white"/>
</g>
<ellipse cx="5.58152" cy="5.5" rx="5.58152" ry="5.5" transform="matrix(1 0 0 -1 207.024 20)" fill="#F43984"/>
<defs>
<filter id="filter0_d_187_2259" x="26.8704" y="108" width="49.1606" height="48" filterUnits="userSpaceOnUse" color-interpolation-filters="sRGB">
<feFlood flood-opacity="0" result="BackgroundImageFix"/>
<feColorMatrix in="SourceAlpha" type="matrix" values="0 0 0 0 0 0 0 0 0 0 0 0 0 0 0 0 0 0 127 0" result="hardAlpha"/>
<feOffset dy="1"/>
<feGaussianBlur stdDeviation="2"/>
<feComposite in2="hardAlpha" operator="out"/>
<feColorMatrix type="matrix" values="0 0 0 0 0 0 0 0 0 0 0 0 0 0 0 0 0 0 0.25 0"/>
<feBlend mode="normal" in2="BackgroundImageFix" result="effect1_dropShadow_187_2259"/>
<feBlend mode="normal" in="SourceGraphic" in2="effect1_dropShadow_187_2259" result="shape"/>
</filter>
<filter id="filter1_d_187_2259" x="196.935" y="0" width="31.3408" height="31" filterUnits="userSpaceOnUse" color-interpolation-filters="sRGB">
<feFlood flood-opacity="0" result="BackgroundImageFix"/>
<feColorMatrix in="SourceAlpha" type="matrix" values="0 0 0 0 0 0 0 0 0 0 0 0 0 0 0 0 0 0 127 0" result="hardAlpha"/>
<feOffset dy="1"/>
<feGaussianBlur stdDeviation="2"/>
<feComposite in2="hardAlpha" operator="out"/>
<feColorMatrix type="matrix" values="0 0 0 0 0 0 0 0 0 0 0 0 0 0 0 0 0 0 0.25 0"/>
<feBlend mode="normal" in2="BackgroundImageFix" result="effect1_dropShadow_187_2259"/>
<feBlend mode="normal" in="SourceGraphic" in2="effect1_dropShadow_187_2259" result="shape"/>
</filter>
</defs>
</svg>
